<?xml version="1.0" standalone="no"?>
<!DOCTYPE svg PUBLIC "-//W3C//DTD SVG 20010904//EN"
 "http://www.w3.org/TR/2001/REC-SVG-20010904/DTD/svg10.dtd">
<svg version="1.0" xmlns="http://www.w3.org/2000/svg"
 width="184.000000pt" height="60.000000pt" viewBox="0 0 184.000000 60.000000"
 preserveAspectRatio="xMidYMid meet">

<g transform="translate(0.000000,60.000000) scale(0.100000,-0.100000)"
fill="#000000" stroke="none">
<path d="M10 300 l0 -300 795 0 795 0 0 300 0 300 -795 0 -795 0 0 -300z m230
80 c0 -5 -5 -10 -11 -10 -5 0 -7 5 -4 10 3 6 8 10 11 10 2 0 4 -4 4 -10z m-3
-55 c-4 -8 -11 -15 -17 -15 -7 0 -7 6 0 21 13 23 26 19 17 -6z m40 -7 c-3 -8
-6 -5 -6 6 -1 11 2 17 5 13 3 -3 4 -12 1 -19z m-37 -43 c0 -8 -9 -19 -20 -25
-23 -12 -25 -7 -10 21 13 22 30 25 30 4z m53 -35 c-7 -8 -22 24 -16 34 4 5 10
1 13 -10 4 -10 6 -21 3 -24z m-53 -40 c0 -12 -12 -26 -30 -35 -37 -19 -40 -4
-5 30 29 30 35 31 35 5z m64 -16 c9 -24 7 -28 -9 -14 -17 14 -20 30 -6 30 5 0
12 -7 15 -16z m-90 -114 c25 -9 38 -50 16 -50 -13 0 -50 37 -50 50 0 12 2 12
34 0z m96 -7 c-1 -18 -18 -35 -24 -24 -4 6 -4 16 -1 21 7 12 25 13 25 3z"/>
</g>
</svg>
